<svg xmlns="http://www.w3.org/2000/svg" width="48" height="48" id="order">
  <path fill-rule="evenodd" d="M24 0A24 24 0 0 0 0 24a24 24 0 0 0 24 24 24 24 0 0 0 24-24A24 24 0 0 0 24 0zM10.457 12a.5.5 0 0 1 .05 0h3a.5.5 0 0 1 .491.408l.674 3.594H33.5a.5.5 0 0 1 .494.578L32.18 28.033c1.01.159 1.82.955 1.82 1.967 0 1.133-1.014 2-2.188 2H29.5c.823 0 1.5.678 1.5 1.5s-.677 1.5-1.5 1.5-1.5-.678-1.5-1.5.677-1.5 1.5-1.5h-10c.823 0 1.5.678 1.5 1.5s-.677 1.5-1.5 1.5-1.5-.678-1.5-1.5.677-1.5 1.5-1.5h-3.094a.5.5 0 1 1 0-1h15.407c.696 0 1.187-.47 1.187-1s-.491-1-1.188-1h-.162a.5.5 0 0 1-.05 0 .5.5 0 0 1-.014 0H16.508a.5.5 0 0 1-.492-.406L13.092 13h-2.584a.5.5 0 0 1-.051-1zm4.402 5.002L15.234 19h2.973l-.166-1.998h-3.182zm4.184 0L19.209 19H22v-1.998h-2.957zm3.957 0V19h2v-1.998h-2zm3 0V19h2.791l.166-1.998H26zm3.959 0L29.793 19h2.805l.316-1.998H29.96zM15.422 20l.375 2h2.66l-.166-2h-2.87zm3.871 0 .166 2H22v-2h-2.707zM23 20v2h2v-2h-2zm3 0v2h2.541l.166-2H26zm3.709 0-.166 2h2.58l.316-2h-2.73zm-13.725 3 .375 2h2.348l-.166-2h-2.557zm3.559 0 .166 2H22v-2h-2.457zM23 23v2h2v-2h-2zm3 0v2h2.291l.166-2H26zm3.459 0-.166 2h2.355l.317-2h-2.506zm-12.912 3 .375 2h2.035l-.168-2h-2.242zm3.246 0 .166 2H22v-2h-2.207zM23 26v2h2v-2h-2zm3 0v2h2.041l.166-2H26zm3.21 0-.167 2h2.129l.318-2h-2.28zm-9.71 7c-.282 0-.5.218-.5.5 0 .282.218.5.5.5.282 0 .5-.218.5-.5 0-.282-.218-.5-.5-.5zm10 0c-.282 0-.5.218-.5.5 0 .282.218.5.5.5.282 0 .5-.218.5-.5 0-.282-.218-.5-.5-.5z"></path>
</svg>
