<svg xmlns="http://www.w3.org/2000/svg" viewBox="0 0 100 100" id="product-setting">
  <path d="M90.9 36.8H9.2c-3.2 0-5.9 2.6-5.9 5.9v49.5c0 3.2 2.6 5.8 5.9 5.8h81.7c3.2 0 5.8-2.6 5.8-5.8V42.6c0-3.2-2.6-5.8-5.8-5.8zm-54.5 9.1c1-1 2.3-1.5 3.7-1.5h19.8c2.9 0 5.3 2.4 5.3 5.3 0 1.4-.5 2.7-1.5 3.7s-2.3 1.5-3.7 1.5H40.1c-2.9 0-5.3-2.4-5.3-5.3 0-1.4.6-2.7 1.6-3.7zm33.3 41c0 2-1.6 3.6-3.6 3.6H33.9c-2 0-3.6-1.6-3.6-3.6V68.8c0-2 1.6-3.6 3.6-3.6H66c2 0 3.6 1.6 3.6 3.6v18.1z"></path>
  <path d="M63 70.9H37c-.6 0-1 .4-1 1 0 .5.4 1 1 1h26c.6 0 1-.5 1-1s-.4-1-1-1zm0 6H37c-.6 0-1 .5-1 1 0 .6.4 1 1 1h26c.6 0 1-.4 1-1s-.4-1-1-1zm0 5.9H37c-.6 0-1 .5-1 1 0 .6.4 1 1 1h26c.6 0 1-.4 1-1 0-.5-.4-1-1-1zM26.8 26.7c-.1.2-.3.4-.5.4l-7 1.3c-1.2.2-2.1 1.3-2.1 2.6v3.8h18.3c0-7.9 6.5-14.4 14.4-14.4s14.4 6.5 14.4 14.4h18.3V31c0-1.2-.9-2.3-2.1-2.6l-7-1.3c-.2 0-.4-.2-.5-.4-.3-.8-.6-1.6-1.1-2.6-.1-.2-.1-.4 0-.6l4-5.9c.7-1 .6-2.4-.3-3.3l-5.4-5.4c-.9-.9-2.3-1-3.3-.3l-5.9 4c-.2.1-.4.1-.6.1-.9-.5-1.8-.8-2.6-1.1-.2-.1-.4-.3-.4-.5l-1.3-7C56.1 2.9 55 2 53.8 2h-7.6c-1.2 0-2.3.9-2.6 2.1l-1.3 7c0 .2-.2.4-.4.5-.8.3-1.7.6-2.6 1.1-.2.1-.4.1-.6-.1l-5.9-4c-1-.7-2.4-.6-3.3.3l-5.4 5.4c-.9.9-1 2.3-.3 3.3l4 5.9c.1.2.1.4 0 .6-.3.9-.7 1.8-1 2.6z"></path>
</svg>
