<svg xmlns="http://www.w3.org/2000/svg" id="businessman-network" width="64" height="64" viewBox="1.51 0 28.979 32">
  <path d="M15.697 0a2.717 2.717 0 0 0-2.717 2.717 2.717 2.717 0 0 0 .084.658L6.45 7.197a2.717 2.717 0 0 0-2.222-1.16A2.717 2.717 0 0 0 1.51 8.754a2.717 2.717 0 0 0 2.2 2.668v7.95a2.717 2.717 0 0 0-2.2 2.665 2.717 2.717 0 0 0 2.717 2.717 2.717 2.717 0 0 0 1.638-.553l7.266 4.2a2.717 2.717 0 0 0-.15.882A2.717 2.717 0 0 0 15.696 32a2.717 2.717 0 0 0 2.719-2.717 2.717 2.717 0 0 0-.072-.6l7.779-4.494a2.717 2.717 0 0 0 1.65.565 2.717 2.717 0 0 0 2.717-2.717 2.717 2.717 0 0 0-2.232-2.67v-7.94a2.717 2.717 0 0 0 2.232-2.673 2.717 2.717 0 0 0-2.717-2.717A2.717 2.717 0 0 0 25.54 7.21l-7.15-4.13a2.717 2.717 0 0 0 .027-.362A2.717 2.717 0 0 0 15.697 0zm2.367 4.047 7.069 4.082a2.717 2.717 0 0 0-.076.625 2.717 2.717 0 0 0 .132.828l-5.347 3.033v.744c-.005.154-.033.298-.059.442l5.881-3.336a2.717 2.717 0 0 0 1.594.957v7.95a2.717 2.717 0 0 0-1.63 1.001l-2.071-1.217c.205.425.36.893.44 1.42l1.173.69a2.717 2.717 0 0 0-.113.771 2.717 2.717 0 0 0 .386 1.39l-7.498 4.33a2.717 2.717 0 0 0-1.748-1.142v-1.78c-.334.011-.668.008-1-.009v1.79a2.717 2.717 0 0 0-1.574.913l-7.074-4.088a2.717 2.717 0 0 0 .394-1.404 2.717 2.717 0 0 0-.148-.871l.844-.479c.06-.49.177-.94.343-1.345l-1.675.951a2.717 2.717 0 0 0-1.598-.926v-7.94a2.717 2.717 0 0 0 1.766-1.148l5.334 3.135-.002-.016-.002-.035V12.25l-4.93-2.896a2.717 2.717 0 0 0 .068-.6 2.717 2.717 0 0 0-.08-.64l6.621-3.827a2.717 2.717 0 0 0 1.713 1.098V7.46h1V5.387a2.717 2.717 0 0 0 1.867-1.34zm-5.619 3.808a.34.34 0 0 0-.244.323v2.3c0 .455.239.86.604 1.096v1.754c.073 1.046.475 1.777 1.037 2.227-.066.518-.289.818-.66 1.093-.44.326-1.08.581-1.754.87-.675.288-1.392.633-1.944 1.244-.551.61-.906 1.466-.906 2.699v.225l.19.076c4.641 2.68 8.933 2.99 14.113 0l.187-.076v-.225c0-1.204-.358-2.052-.906-2.643-.548-.59-1.257-.905-1.924-1.187-.666-.282-1.303-.534-1.736-.87-.426-.328-.669-.706-.678-1.433.586-.485.992-1.167 1.018-2v-2.943c0-1.054-.798-1.924-1.81-1.924H13.407c-.207 0-.378-.034-.453-.076-.075-.042-.094-.05-.094-.21.002-.202-.22-.372-.416-.32zm3.38 8.807c.488 0 .882.396.882.885a.921.921 0 0 1-.268.648s-.22.107-.125.46l.717 4.003-1.207.604-1.185-.612.728-3.996c.095-.292-.114-.442-.129-.459a.853.853 0 0 1-.299-.648c0-.489.397-.885.885-.885z" color="#000" font-family="sans-serif" font-weight="400" overflow="visible" style="line-height:normal;text-indent:0;text-align:start;text-decoration-line:none;text-decoration-style:solid;text-decoration-color:#000;text-transform:none;block-progression:tb;white-space:normal;isolation:auto;mix-blend-mode:normal;solid-color:#000;solid-opacity:1"></path>
</svg>
