<svg xmlns="http://www.w3.org/2000/svg" viewBox="0 0 46.9 46.9" id="user-management">
  <path fill="#231f20" d="M29.42 34.6a12.29 12.29 0 0 1-12.29 12.29h-4.84A12.26 12.26 0 0 1 3.6 43.3a12.29 12.29 0 0 1 8.69-21h4.83a12.29 12.29 0 0 1 12.29 12.3Z"></path>
  <circle cx="14.71" cy="7.87" r="7.87" fill="#231f20"></circle>
  <path fill="#231f20" d="M46.29 14.08h-1.41a.63.63 0 0 1-.6-.46 7.94 7.94 0 0 0-.79-1.9.63.63 0 0 1 .1-.76l1-1a.61.61 0 0 0 0-.88l-1.45-1.45a.63.63 0 0 0-.88 0l-1 1a.63.63 0 0 1-.76.1 7.78 7.78 0 0 0-1.9-.79.62.62 0 0 1-.46-.6v-1.4a.63.63 0 0 0-.62-.63h-2.06a.63.63 0 0 0-.62.63v1.4a.62.62 0 0 1-.47.6 8.12 8.12 0 0 0-1.9.79.62.62 0 0 1-.75-.1l-1-1a.63.63 0 0 0-.88 0l-1.46 1.45a.62.62 0 0 0 0 .88l1 1a.62.62 0 0 1 .09.76 7.92 7.92 0 0 0-.78 1.9.63.63 0 0 1-.61.46h-1.4a.63.63 0 0 0-.62.63v2a.62.62 0 0 0 .62.62h1.4a.63.63 0 0 1 .61.47 7.92 7.92 0 0 0 .78 1.9.61.61 0 0 1-.09.75l-1 1a.62.62 0 0 0 0 .88l1.46 1.45a.63.63 0 0 0 .88 0l1-1a.62.62 0 0 1 .75-.1 8.12 8.12 0 0 0 1.9.79.62.62 0 0 1 .47.6v1.4a.63.63 0 0 0 .62.63h2.06a.63.63 0 0 0 .62-.63v-1.34a.62.62 0 0 1 .46-.6 7.78 7.78 0 0 0 1.9-.79.63.63 0 0 1 .76.1l1 1a.63.63 0 0 0 .88 0l1.43-1.41a.61.61 0 0 0 0-.88l-1-1a.62.62 0 0 1-.1-.75 7.94 7.94 0 0 0 .79-1.9.63.63 0 0 1 .6-.47h1.43a.62.62 0 0 0 .62-.62v-2a.63.63 0 0 0-.62-.73Zm-9.8 4.72a3.07 3.07 0 1 1 3.06-3.07 3.06 3.06 0 0 1-3.07 3.07Z"></path>
</svg>
