<svg xmlns="http://www.w3.org/2000/svg" viewBox="0 0 64 64" id="e-voucher">
  <path d="M46.89,27H35l1,7H46.44a2.27,2.27,0,0,0,2.23-1.86l.45-2.47A2.26,2.26,0,0,0,46.89,27ZM40,33H39a2,2,0,0,1,0-4h1a2,2,0,0,1,0,4Zm6,0H45a2,2,0,0,1,0-4h1a2,2,0,0,1,0,4Zm9.73-20H19a2,2,0,0,0-2,2,2,2,0,0,1-4,0,2,2,0,0,0-2-2H8.27A6.27,6.27,0,0,0,2,19.27V44.73A6.27,6.27,0,0,0,8.27,51H11a2,2,0,0,0,2-2,2,2,0,0,1,4,0,2,2,0,0,0,2,2H55.73A6.27,6.27,0,0,0,62,44.73V19.27A6.27,6.27,0,0,0,55.73,13ZM17,40a2,2,0,0,1-4,0V38a2,2,0,0,1,4,0Zm0-7a2,2,0,0,1-4,0V31a2,2,0,0,1,4,0Zm0-7a2,2,0,0,1-4,0V24a2,2,0,0,1,4,0Zm36.05,4.39-.45,2.46A6.26,6.26,0,0,1,46.44,38H36.83a2.29,2.29,0,0,0,1.87,1H49a2,2,0,0,1,0,4H45.86a4,4,0,0,1-7.73,0,6.29,6.29,0,0,1-5.63-5.33L30.54,24A2.27,2.27,0,0,0,28.3,22H26a2,2,0,0,1,0-4h2.3a6.29,6.29,0,0,1,6.11,5H46.89a6.26,6.26,0,0,1,6.16,7.39Z"></path>
</svg>
